<?xml version="1.0" standalone="no"?>
<!DOCTYPE svg PUBLIC "-//W3C//DTD SVG 20010904//EN"
 "http://www.w3.org/TR/2001/REC-SVG-20010904/DTD/svg10.dtd">
<svg version="1.0" xmlns="http://www.w3.org/2000/svg"
 width="1170.000000pt" height="448.000000pt" viewBox="0 0 1170.000000 448.000000"
 preserveAspectRatio="xMidYMid meet">

<g transform="translate(0.000000,448.000000) scale(0.100000,-0.100000)"
fill="#000000" stroke="none">
<path d="M4465 4013 c-99 -36 -360 -130 -580 -210 -1050 -379 -1098 -397
-1079 -403 11 -4 109 -40 219 -79 187 -68 423 -153 1284 -464 l344 -125 621
225 c342 123 638 230 659 237 l37 14 0 -84 c0 -83 0 -84 -25 -84 l-25 0 0
-440 0 -440 90 0 90 0 0 439 0 440 -22 3 c-22 3 -23 8 -26 99 l-3 96 231 83
c127 46 228 86 223 90 -7 6 -496 183 -1588 576 -143 52 -262 94 -265 93 -3 0
-86 -30 -185 -66z m602 -264 c230 -83 528 -190 663 -239 135 -48 254 -92 264
-96 16 -6 8 -12 -40 -30 l-60 -22 -624 43 c-343 24 -629 41 -636 38 -8 -3 -16
-14 -20 -25 -15 -47 -8 -49 553 -88 445 -31 523 -39 498 -49 -43 -17 -141 -53
-285 -104 -69 -25 -257 -93 -418 -151 -161 -58 -300 -106 -309 -106 -14 0
-139 45 -1046 372 -169 62 -304 115 -300 118 5 4 217 82 473 174 371 133 856
309 867 315 1 1 190 -67 420 -150z"/>
<path d="M1615 3046 c-161 -46 -225 -116 -225 -247 0 -153 108 -226 390 -263
235 -31 302 -53 321 -104 16 -42 -11 -89 -64 -112 -72 -32 -177 -44 -270 -30
-115 17 -181 53 -240 134 -12 16 -18 15 -94 -9 -90 -28 -90 -27 -47 -96 74
-119 230 -180 459 -180 231 0 353 52 411 176 45 95 25 209 -47 269 -59 50
-132 75 -297 101 -256 41 -281 46 -315 69 -60 40 -47 99 30 138 43 21 61 23
173 22 92 0 137 -5 169 -17 60 -23 105 -59 120 -95 l12 -30 80 26 c76 25 80
28 74 52 -16 66 -114 149 -213 181 -86 28 -347 37 -427 15z"/>
<path d="M2470 2965 l0 -75 195 0 195 0 0 -365 0 -365 90 0 90 0 0 365 0 365
195 0 195 0 0 75 0 75 -480 0 -480 0 0 -75z"/>
<path d="M6210 2966 l0 -74 123 -5 c150 -6 213 -24 272 -78 60 -55 79 -114 73
-228 -10 -188 -101 -259 -345 -269 l-123 -4 0 -74 0 -74 128 0 c139 0 212 14
299 56 156 75 239 255 213 463 -31 241 -203 361 -517 361 l-123 0 0 -74z"/>
<path d="M7130 2600 l0 -440 405 0 406 0 -3 73 -3 72 -317 3 -318 2 0 115 0
115 270 0 270 0 0 75 0 75 -270 0 -270 0 0 100 0 100 310 0 310 0 0 75 0 75
-395 0 -395 0 0 -440z"/>
<path d="M8200 2600 l0 -440 80 0 80 0 0 325 c0 179 3 325 8 324 4 0 78 -78
165 -172 87 -95 177 -192 200 -217 23 -25 87 -93 141 -152 l98 -108 84 0 84 0
0 440 0 440 -85 0 -85 0 0 -317 0 -318 -47 50 c-66 71 -226 245 -394 427
l-144 157 -92 0 -93 1 0 -440z"/>
<path d="M9390 2965 l0 -75 195 0 195 0 0 -365 0 -365 85 0 85 0 0 365 0 365
200 0 200 0 0 75 0 75 -480 0 -480 0 0 -75z"/>
<path d="M3770 2681 c0 -154 4 -291 9 -304 27 -71 168 -153 341 -201 464 -125
1151 -56 1358 138 62 57 62 58 62 366 0 154 -1 280 -3 280 -2 0 -39 -13 -83
-29 l-79 -29 -5 -233 -5 -234 -60 -32 c-144 -76 -368 -117 -645 -117 -257 -1
-479 35 -627 100 -99 44 -93 26 -93 285 l0 227 -81 31 c-44 17 -83 31 -85 31
-2 0 -4 -126 -4 -279z"/>
<path d="M1712 1745 c-226 -41 -362 -207 -362 -440 0 -130 41 -245 116 -326
89 -94 193 -137 349 -146 177 -10 336 38 426 128 43 43 99 149 99 187 0 21 -4
22 -82 22 l-83 0 -28 -50 c-51 -94 -170 -146 -312 -138 -103 7 -170 35 -228
97 -60 64 -81 129 -75 235 5 96 29 155 83 208 60 59 130 82 256 82 98 1 109
-1 165 -29 40 -21 70 -46 94 -78 l35 -47 82 0 c63 0 83 3 83 13 0 31 -64 138
-104 175 -114 105 -305 145 -514 107z"/>
<path d="M3055 1744 c-233 -49 -365 -214 -365 -455 0 -231 143 -400 377 -445
265 -50 520 38 616 214 74 137 76 326 3 470 -32 62 -117 142 -189 176 -114 54
-296 70 -442 40z m322 -162 c76 -29 128 -74 160 -140 25 -50 28 -68 28 -147
-1 -139 -46 -220 -153 -274 -138 -69 -350 -49 -459 43 -71 60 -107 195 -83
309 23 110 100 188 220 222 75 20 217 14 287 -13z"/>
<path d="M8431 1745 c-182 -33 -314 -155 -350 -323 -25 -117 -6 -269 46 -364
33 -61 115 -138 181 -172 144 -73 392 -73 547 0 96 46 182 152 200 247 l7 37
-85 0 c-84 0 -85 0 -97 -29 -18 -45 -79 -101 -140 -130 -49 -23 -67 -26 -160
-26 -121 0 -178 20 -243 83 -69 66 -82 102 -82 227 0 94 3 116 22 151 46 86
114 133 221 154 154 31 317 -23 368 -121 14 -29 16 -29 100 -29 96 0 93 -4 54
85 -76 173 -317 259 -589 210z"/>
<path d="M4147 1733 c-4 -3 -7 -204 -7 -445 l0 -438 85 0 85 0 0 329 0 330 78
-83 c87 -92 277 -296 433 -463 l104 -113 78 0 77 0 0 445 0 445 -80 0 -80 0 0
-316 c0 -194 -4 -314 -9 -312 -6 2 -53 50 -107 108 -53 58 -182 198 -288 312
l-191 208 -86 0 c-47 0 -89 -3 -92 -7z"/>
<path d="M5540 1295 l0 -445 85 0 85 0 0 328 0 327 68 -70 c37 -38 117 -124
177 -190 101 -110 145 -157 309 -332 l59 -63 79 0 78 0 0 445 0 446 -82 -3
-83 -3 -5 -314 -5 -314 -44 49 c-109 120 -377 408 -484 522 l-59 62 -89 0 -89
0 0 -445z"/>
<path d="M6940 1295 l0 -445 405 0 405 0 0 75 0 75 -320 0 -320 0 0 115 0 115
265 0 265 0 0 75 0 75 -262 2 -263 3 -3 103 -3 102 311 0 310 0 0 75 0 75
-395 0 -395 0 0 -445z"/>
<path d="M9387 1733 c-4 -3 -7 -37 -7 -75 l0 -68 200 0 200 0 0 -370 0 -370
85 0 85 0 0 370 0 370 200 0 200 0 0 75 0 75 -478 0 c-263 0 -482 -3 -485 -7z"/>
</g>
</svg>
