<?xml version="1.0" ?><svg enable-background="new 0 0 204.057 129.209" id="Layer_1" version="1.1" viewBox="0 0 204.057 129.209" xml:space="preserve" xmlns="http://www.w3.org/2000/svg" xmlns:xlink="http://www.w3.org/1999/xlink"><g><path d="M92.068,106.336H81.69v1.102c3.246,0,3.768,0.695,3.768,4.813v7.421c0,4.116-0.521,4.87-3.768,4.87   c-2.492-0.348-4.174-1.682-6.493-4.232l-2.667-2.898c3.595-0.639,5.508-2.899,5.508-5.451c0-3.188-2.725-5.623-7.827-5.623H60.007   v1.102c3.246,0,3.768,0.695,3.768,4.813v7.421c0,4.116-0.521,4.87-3.768,4.87v1.101h11.537v-1.101c-3.247,0-3.769-0.754-3.769-4.87   v-2.09h0.985l6.436,8.058h16.871c8.291,0,11.885-4.405,11.885-9.682C103.952,110.685,100.359,106.336,92.068,106.336z    M67.776,115.786v-7.71h2.377c2.608,0,3.769,1.797,3.769,3.883c0,2.03-1.16,3.827-3.769,3.827L67.776,115.786L67.776,115.786z    M92.241,123.845h-0.406c-2.087,0-2.377-0.521-2.377-3.188v-12.58c0,0,2.551,0,2.783,0c6.029,0,7.131,4.405,7.131,7.826   C99.372,119.439,98.271,123.845,92.241,123.845z" fill="#00749A"/><path d="M27.715,117.932l4-11.828c1.16-3.42,0.639-4.405-3.072-4.405v-1.16h10.9v1.16   c-3.652,0-4.522,0.869-5.972,5.102l-6.61,19.828h-0.753l-5.914-18.147l-6.029,18.147h-0.754l-6.435-19.828   c-1.392-4.232-2.319-5.102-5.682-5.102v-1.16h12.871v1.16c-3.421,0-4.349,0.812-3.131,4.405l3.884,11.828l5.856-17.394h1.102   L27.715,117.932z" fill="#00749A"/><path d="M47.426,126.396c-6.377,0-11.595-4.695-11.595-10.436c0-5.682,5.218-10.378,11.595-10.378   s11.596,4.696,11.596,10.378C59.022,121.701,53.803,126.396,47.426,126.396z M47.426,107.38c-5.334,0-7.189,4.811-7.189,8.58   c0,3.827,1.855,8.581,7.189,8.581c5.392,0,7.247-4.754,7.247-8.581C54.673,112.192,52.818,107.38,47.426,107.38z" fill="#00749A"/><path d="M118.272,124.483v1.159h-13.276v-1.159c3.885,0,4.58-0.985,4.58-6.783v-9.275   c0-5.799-0.695-6.726-4.58-6.726v-1.16h12.001c5.972,0,9.276,3.073,9.276,7.19c0,4-3.305,7.131-9.276,7.131h-3.305v2.84   C113.692,123.498,114.387,124.483,118.272,124.483z M116.996,102.625h-3.305v10.088h3.305c3.247,0,4.754-2.261,4.754-4.984   C121.75,104.946,120.243,102.625,116.996,102.625z" fill="#464342"/><path d="M166.101,120.193l-0.289,1.044c-0.521,1.913-1.16,2.608-5.276,2.608h-0.812   c-3.015,0-3.536-0.695-3.536-4.812v-2.667c4.521,0,4.87,0.405,4.87,3.421h1.102v-8.639h-1.102c0,3.015-0.349,3.42-4.87,3.42v-6.492   h3.188c4.116,0,4.754,0.695,5.275,2.608l0.29,1.101h0.928l-0.405-5.449h-17.046v1.102c3.247,0,3.769,0.695,3.769,4.813v7.421   c0,3.766-0.443,4.714-3.003,4.85c-2.433-0.372-4.104-1.699-6.389-4.212l-2.667-2.898c3.595-0.639,5.509-2.899,5.509-5.451   c0-3.188-2.725-5.623-7.827-5.623h-10.204v1.102c3.247,0,3.769,0.695,3.769,4.813v7.421c0,4.116-0.521,4.87-3.769,4.87v1.101   h11.537v-1.101c-3.246,0-3.768-0.754-3.768-4.87v-2.09h0.985l6.435,8.058h23.828l0.348-5.449L166.101,120.193L166.101,120.193z    M135.375,115.786v-7.71h2.377c2.608,0,3.769,1.797,3.769,3.883c0,2.03-1.16,3.827-3.769,3.827L135.375,115.786L135.375,115.786z" fill="#464342"/><path d="M177.87,126.396c-2.319,0-4.349-1.217-5.218-1.971c-0.29,0.29-0.811,1.159-0.928,1.971h-1.102v-8h1.159   c0.464,3.826,3.131,6.087,6.552,6.087c1.854,0,3.362-1.043,3.362-2.782c0-1.508-1.334-2.667-3.71-3.769l-3.305-1.565   c-2.319-1.103-4.059-3.015-4.059-5.565c0-2.783,2.608-5.16,6.204-5.16c1.913,0,3.535,0.695,4.521,1.508   c0.29-0.232,0.579-0.871,0.754-1.566h1.102v6.842h-1.218c-0.406-2.726-1.913-4.986-4.985-4.986c-1.624,0-3.132,0.928-3.132,2.377   c0,1.508,1.218,2.318,4.001,3.595l3.189,1.565c2.783,1.333,3.885,3.479,3.885,5.218   C184.944,123.845,181.754,126.396,177.87,126.396z" fill="#464342"/><path d="M195.727,126.396c-2.319,0-4.35-1.217-5.219-1.971c-0.29,0.29-0.812,1.159-0.927,1.971h-1.103v-8h1.16   c0.464,3.826,3.13,6.087,6.551,6.087c1.855,0,3.363-1.043,3.363-2.782c0-1.508-1.334-2.667-3.711-3.769l-3.305-1.565   c-2.319-1.103-4.059-3.015-4.059-5.565c0-2.783,2.609-5.16,6.204-5.16c1.913,0,3.536,0.695,4.523,1.508   c0.289-0.232,0.579-0.871,0.753-1.566h1.102v6.842h-1.218c-0.405-2.726-1.913-4.986-4.985-4.986c-1.623,0-3.131,0.928-3.131,2.377   c0,1.508,1.217,2.318,4.001,3.595l3.188,1.565c2.783,1.333,3.885,3.479,3.885,5.218   C202.799,123.845,199.61,126.396,195.727,126.396z" fill="#464342"/><g><path d="M64.441,45.293c0,14.826,8.616,27.639,21.111,33.711L67.684,30.049    C65.606,34.707,64.441,39.863,64.441,45.293z" fill="#464342"/><path d="M127.184,43.403c0-4.629-1.663-7.835-3.089-10.33c-1.898-3.085-3.679-5.699-3.679-8.784    c0-3.443,2.611-6.648,6.29-6.648c0.166,0,0.323,0.021,0.485,0.03c-6.664-6.106-15.542-9.833-25.294-9.833    c-13.086,0-24.598,6.714-31.296,16.883c0.88,0.027,1.708,0.045,2.411,0.045c3.917,0,9.982-0.476,9.982-0.476    c2.019-0.119,2.257,2.847,0.24,3.085c0,0-2.03,0.239-4.287,0.358l13.64,40.573l8.198-24.585l-5.836-15.989    c-2.017-0.119-3.928-0.358-3.928-0.358c-2.018-0.118-1.782-3.204,0.237-3.085c0,0,6.185,0.476,9.866,0.476    c3.917,0,9.982-0.476,9.982-0.476c2.02-0.119,2.258,2.847,0.24,3.085c0,0-2.033,0.239-4.287,0.358l13.536,40.265l3.736-12.484    C125.951,50.33,127.184,46.61,127.184,43.403z" fill="#464342"/><path d="M102.555,48.57L91.316,81.227c3.355,0.986,6.904,1.525,10.581,1.525c4.361,0,8.545-0.754,12.438-2.123    c-0.101-0.16-0.191-0.33-0.267-0.516L102.555,48.57z" fill="#464342"/><path d="M134.765,27.323c0.161,1.193,0.252,2.473,0.252,3.852c0,3.8-0.71,8.073-2.848,13.416l-11.441,33.08    c11.136-6.494,18.626-18.559,18.626-32.377C139.354,38.781,137.691,32.658,134.765,27.323z" fill="#464342"/><path d="M101.898,1.631c-24.076,0-43.663,19.587-43.663,43.662c0,24.079,19.587,43.664,43.663,43.664    c24.074,0,43.665-19.586,43.665-43.664C145.563,21.218,125.972,1.631,101.898,1.631z M101.898,86.955    c-22.971,0-41.661-18.689-41.661-41.663c0-22.971,18.69-41.66,41.661-41.66s41.659,18.689,41.659,41.66    C143.557,68.266,124.868,86.955,101.898,86.955z" fill="#464342"/></g></g></svg>